<svg id="Capa_1" enable-background="new 0 0 512 512" viewBox="0 0 512 512" xmlns="http://www.w3.org/2000/svg"><g><g><circle cx="256" cy="256" fill="#5766cb" r="230.75"/></g><g><path d="m380.568 61.732c23.088 35.932 36.481 78.685 36.481 124.568 0 127.44-103.31 230.75-230.75 230.75-45.882 0-88.636-13.394-124.568-36.481 41.039 63.868 112.712 106.181 194.269 106.181 127.44 0 230.75-103.31 230.75-230.75 0-81.557-42.313-153.23-106.182-194.268z" fill="#3d4fc3"/></g><g><g><path d="m256 504.471c-66.369 0-128.765-25.845-175.695-72.775-46.93-46.931-72.776-109.327-72.776-175.696s25.846-128.765 72.776-175.695 109.326-72.776 175.695-72.776 128.765 25.845 175.695 72.775 72.776 109.326 72.776 175.695-25.845 128.765-72.776 175.695c-46.93 46.931-109.326 72.777-175.695 72.777zm0-461.5c-117.464 0-213.029 95.565-213.029 213.029s95.565 213.029 213.029 213.029 213.029-95.565 213.029-213.029-95.565-213.029-213.029-213.029z" fill="#d3effb"/></g></g><g><g><path d="m431.695 80.305c-3.288-3.288-6.66-6.461-10.096-9.541 40.873 45.605 63.235 103.881 63.235 165.6 0 66.369-25.845 128.765-72.776 175.695-46.929 46.93-109.326 72.775-175.695 72.775-61.719 0-119.994-22.362-165.599-63.235 3.079 3.436 6.252 6.808 9.54 10.096 46.929 46.93 109.326 72.775 175.695 72.775s128.765-25.845 175.695-72.775 72.776-109.326 72.776-175.695-25.845-128.765-72.775-175.695z" fill="#b1e4f9"/></g></g><g><g><g><path d="m255.052 364.947c-9.665.001-18.212-6.14-21.291-15.312-.072-.215-.14-.431-.205-.647l-35.331-119.755-21.516 119.213c-1.798 9.962-11.327 16.583-21.292 14.781-9.962-1.798-16.579-11.331-14.781-21.292l32.163-178.201c.012-.069.026-.138.039-.207 1.926-10.014 10.378-17.485 20.553-18.168 10.186-.683 19.549 5.592 22.797 15.26.073.215.141.432.206.649l38.427 130.251 37.077-130.06c.06-.212.124-.422.192-.632 3.146-9.698 12.455-16.073 22.631-15.494 10.179.575 18.709 7.953 20.743 17.943.015.072.03.145.043.217l34.067 178.256c1.9 9.943-4.619 19.543-14.561 21.443-9.932 1.899-19.542-4.619-21.443-14.562l-22.842-119.518-34.116 119.673c-.059.212-.124.422-.191.631-2.998 9.239-11.537 15.48-21.25 15.53-.04.001-.08.001-.119.001z" fill="#f1f4f6"/></g></g></g><g><path d="m355.012 363.192c9.942-1.9 16.462-11.501 14.561-21.443l-2.931-15.336c-8.667 11.134-18.343 21.44-28.887 30.793 4.145 4.755 10.622 7.255 17.257 5.986z" fill="#dfeaef"/></g><g><g><path d="m256 512c-14.165 0-28.37-1.159-42.22-3.445-4.103-.676-6.88-4.552-6.204-8.655.677-4.102 4.554-6.869 8.655-6.203 13.043 2.153 26.423 3.244 39.769 3.244 64.359 0 124.864-25.063 170.371-70.57 45.508-45.508 70.571-106.013 70.571-170.372s-25.063-124.864-70.57-170.371c-45.508-45.506-106.013-70.569-170.372-70.569s-124.864 25.063-170.371 70.569c-45.507 45.508-70.57 106.013-70.57 170.372s25.063 124.864 70.57 170.371c27.271 27.271 60.853 47.774 97.119 59.294 3.964 1.26 6.156 5.493 4.897 9.456-1.26 3.964-5.496 6.155-9.456 4.897-38.552-12.247-74.241-34.032-103.208-62.998-48.353-48.351-74.981-112.639-74.981-181.02s26.628-132.669 74.981-181.02c48.35-48.352 112.638-74.98 181.019-74.98s132.669 26.628 181.02 74.981c48.352 48.35 74.98 112.638 74.98 181.019s-26.628 132.669-74.981 181.02c-48.35 48.352-112.638 74.98-181.019 74.98zm0-35.441c-121.617 0-220.559-98.942-220.559-220.559 0-78.904 42.695-152.327 111.424-191.619 3.613-2.068 8.211-.811 10.274 2.799 2.065 3.611.811 8.21-2.799 10.274-64.052 36.617-103.84 105.031-103.84 178.546 0 113.313 92.187 205.5 205.5 205.5s205.5-92.187 205.5-205.5-92.187-205.5-205.5-205.5c-24.418 0-48.323 4.26-71.051 12.662-3.903 1.439-8.232-.553-9.674-4.452-1.441-3.901.552-8.231 4.452-9.674 24.405-9.021 50.067-13.595 76.273-13.595 121.617 0 220.559 98.942 220.559 220.559s-98.942 220.559-220.559 220.559z"/></g></g><g><g><g><path d="m255.052 372.475c-12.898.001-24.323-8.215-28.429-20.444-.101-.306-.194-.597-.281-.889l-26.348-89.311-15.875 87.951c-1.227 6.798-5.026 12.711-10.699 16.649-5.674 3.941-12.543 5.434-19.343 4.204-6.794-1.225-12.707-5.026-16.645-10.7-3.939-5.674-5.432-12.542-4.206-19.338l32.199-178.395c.002-.007.018-.092.019-.099 2.573-13.372 13.858-23.346 27.443-24.258 13.6-.905 26.103 7.468 30.438 20.375.098.289.195.594.286.9l31.085 105.368 29.96-105.095c.083-.295.178-.608.28-.918 4.193-12.926 16.615-21.431 30.213-20.66 13.587.768 24.976 10.619 27.693 23.957.024.119.046.231.067.344l21.513 112.567c.781 4.084-1.897 8.028-5.981 8.809-4.078.785-8.028-1.896-8.809-5.981l-21.521-112.604c-.008-.037-.015-.074-.021-.111-1.357-6.659-7.027-11.564-13.794-11.945-6.756-.403-12.953 3.851-15.045 10.299-.044.135-.076.244-.108.354l-37.082 130.078c-.919 3.222-3.856 5.449-7.207 5.465-3.386-.012-6.307-2.185-7.256-5.399l-38.426-130.251c-.034-.114-.075-.242-.118-.369-2.163-6.44-8.402-10.622-15.16-10.158-6.764.453-12.382 5.42-13.663 12.077-.004.022-.019.1-.023.122l-32.164 178.202c-.513 2.838.111 5.707 1.756 8.076 1.645 2.37 4.115 3.957 6.953 4.469 2.837.512 5.708-.109 8.076-1.754 2.37-1.645 3.956-4.115 4.469-6.955l21.517-119.213c.62-3.434 3.518-5.992 7.002-6.181 3.476-.175 6.643 2.041 7.629 5.388l35.33 119.755c.035.117.079.257.126.396 2.039 6.074 7.726 10.165 14.147 10.164h.119c6.419-.033 12.096-4.182 14.088-10.324.033-.106.068-.214.098-.324l34.13-119.723c.956-3.354 4.079-5.639 7.576-5.457 3.484.155 6.407 2.682 7.061 6.108l22.842 119.519c.541 2.832 2.154 5.284 4.542 6.906 2.388 1.621 5.26 2.215 8.091 1.674 5.848-1.119 9.698-6.786 8.579-12.634l-6.313-33.036c-.781-4.084 1.897-8.028 5.981-8.809 4.078-.787 8.028 1.897 8.809 5.981l6.314 33.036c2.676 14.004-6.539 27.574-20.543 30.252-6.778 1.298-13.662-.125-19.375-4.006-5.718-3.88-9.579-9.754-10.876-16.537l-16.893-88.393-25.428 89.199c-.074.265-.169.576-.27.886-4.002 12.339-15.404 20.673-28.374 20.739h-.155z"/></g></g></g></g></svg>