<svg id="Capa_1" enable-background="new 0 0 512 512" viewBox="0 0 512 512" xmlns="http://www.w3.org/2000/svg"><g><path d="m399.088 0h-143.088l-33.603 20-37.629-20h-52.106c-8.284 0-15 6.716-15 15v129.048c0 8.284 6.716 15 15 15h266.426c8.284 0 15-6.716 15-15v-129.048c0-8.284-6.716-15-15-15z" fill="#61729b"/><path d="m399.088 159.048c8.284 0 15-6.716 15-15v-129.048c0-8.284-6.716-15-15-15h-143.088v159.048z" fill="#47568c"/><path d="m184.768 0h71.232v159.048h-71.232z" fill="#ffe470"/><g><path d="m497 129.048h-82.912l-66.963 20-91.125-20h-138.338l-77.662 15v352.952l77.662 15h379.338c8.284 0 15-6.716 15-15v-114.049l-40-62.431 40-62.419v-114.053c0-8.284-6.716-15-15-15z" fill="#ff5b5b"/><path d="m117.662 129.048h-102.662c-8.284 0-15 6.716-15 15v352.952c0 8.284 6.716 15 15 15h102.662z" fill="#ff8859"/></g><path d="m497 129.048h-241v382.952h241c8.284 0 15-6.716 15-15v-114.049l-40-62.431 40-62.419v-114.053c0-8.284-6.716-15-15-15z" fill="#e50058"/><path d="m512 258.096h-94.002c-33.636 0-60.903 27.267-60.903 60.903v3.051c0 33.636 27.267 60.903 60.903 60.903h94.002z" fill="#ff8859"/></g></svg>